<?xml version="1.0" encoding="utf-8"?>
<!-- Generator: Adobe Illustrator 16.0.0, SVG Export Plug-In . SVG Version: 6.00 Build 0)  -->
<!DOCTYPE svg PUBLIC "-//W3C//DTD SVG 1.1//EN" "http://www.w3.org/Graphics/SVG/1.1/DTD/svg11.dtd">
<svg version="1.1" id="Layer_1" xmlns="http://www.w3.org/2000/svg" xmlns:xlink="http://www.w3.org/1999/xlink" x="0px" y="0px"
	 width="177.572px" height="102.794px" viewBox="0 0 177.572 102.794" enable-background="new 0 0 177.572 102.794"
	 xml:space="preserve">
<g>
	<path fill="#C03B2B" d="M112.25,30.29c0,0-0.551-0.02-1.584-0.055c-1.053-0.03-2.627-0.045-4.635-0.025
		c-2.01,0.02-4.459,0.088-7.27,0.235c-2.809,0.161-5.984,0.366-9.434,0.743c-3.455,0.344-7.182,0.855-11.109,1.493
		c-1.951,0.367-3.98,0.67-6.014,1.129c-1.023,0.216-2.055,0.433-3.098,0.652c-1.035,0.252-2.08,0.506-3.133,0.763
		c-2.119,0.481-4.221,1.131-6.373,1.729c-2.135,0.644-4.277,1.355-6.428,2.098c-2.113,0.823-4.301,1.549-6.389,2.509
		c-1.057,0.456-2.115,0.913-3.174,1.371l-3.098,1.537c-2.103,0.972-4.048,2.205-6.063,3.32c-1.007,0.56-1.928,1.24-2.895,1.853
		c-0.943,0.644-1.938,1.219-2.834,1.914c-0.904,0.688-1.805,1.372-2.7,2.054c-0.445,0.345-0.904,0.673-1.337,1.029l-1.252,1.11
		c-0.835,0.738-1.665,1.473-2.489,2.202c-0.815,0.74-1.531,1.564-2.296,2.334c-0.74,0.791-1.524,1.536-2.214,2.348
		c-0.671,0.828-1.336,1.648-1.993,2.461c-1.385,1.58-2.457,3.326-3.581,4.979c-1.188,1.618-2.017,3.382-2.942,5.025
		c-0.227,0.414-0.45,0.824-0.673,1.231c-0.233,0.402-0.439,0.813-0.604,1.238c-0.359,0.837-0.712,1.659-1.057,2.464
		c-0.347,0.808-0.687,1.598-1.018,2.37c-0.315,0.779-0.524,1.575-0.783,2.333c-0.484,1.527-0.975,2.973-1.383,4.346
		c-0.313,1.399-0.604,2.709-0.874,3.92c-0.136,0.607-0.266,1.189-0.39,1.746c-0.063,0.278-0.123,0.55-0.182,0.815
		c-0.037,0.27-0.072,0.531-0.107,0.787C0.308,100.45,0,102.794,0,102.794s0.152-2.364,0.42-6.501
		c0.019-0.26,0.036-0.525,0.056-0.799c0.041-0.27,0.084-0.546,0.128-0.829c0.088-0.567,0.18-1.161,0.274-1.779
		c0.192-1.24,0.4-2.582,0.622-4.015c0.319-1.413,0.718-2.906,1.107-4.492c0.212-0.787,0.374-1.614,0.642-2.428
		c0.285-0.809,0.577-1.637,0.875-2.482c0.3-0.848,0.605-1.712,0.917-2.594c0.142-0.447,0.324-0.883,0.535-1.31
		c0.2-0.433,0.401-0.869,0.604-1.31c0.837-1.748,1.581-3.631,2.69-5.38c1.047-1.783,2.049-3.673,3.371-5.406
		c0.63-0.891,1.266-1.791,1.908-2.7c0.664-0.893,1.424-1.722,2.144-2.599c0.742-0.855,1.442-1.77,2.241-2.599
		c0.811-0.819,1.626-1.646,2.447-2.476l1.24-1.251c0.428-0.403,0.882-0.777,1.324-1.169c0.893-0.777,1.789-1.558,2.689-2.341
		c0.896-0.793,1.889-1.462,2.836-2.203c0.969-0.709,1.899-1.489,2.911-2.145c2.024-1.307,3.999-2.74,6.124-3.902l3.146-1.827
		c1.076-0.553,2.151-1.104,3.224-1.655c2.131-1.151,4.352-2.06,6.516-3.068c2.195-0.925,4.387-1.817,6.574-2.638
		c2.199-0.774,4.361-1.597,6.533-2.246c1.082-0.341,2.154-0.678,3.219-1.013c1.07-0.301,2.133-0.599,3.184-0.894
		c2.096-0.619,4.178-1.075,6.193-1.593c4.047-0.936,7.9-1.725,11.479-2.322c3.572-0.631,6.873-1.065,9.803-1.428
		c2.934-0.35,5.502-0.591,7.627-0.753c2.127-0.162,3.805-0.257,4.969-0.302c1.184-0.037,1.814-0.058,1.814-0.058L112.25,30.29z"/>
</g>
</svg>
