<?xml version="1.0" encoding="utf-8"?>
<!-- Generator: Adobe Illustrator 16.0.0, SVG Export Plug-In . SVG Version: 6.00 Build 0)  -->
<!DOCTYPE svg PUBLIC "-//W3C//DTD SVG 1.1//EN" "http://www.w3.org/Graphics/SVG/1.1/DTD/svg11.dtd">
<svg version="1.1" id="Layer_1" xmlns="http://www.w3.org/2000/svg" xmlns:xlink="http://www.w3.org/1999/xlink" x="0px" y="0px"
	 width="177.572px" height="102.794px" viewBox="0 0 177.572 102.794" enable-background="new 0 0 177.572 102.794"
	 xml:space="preserve">
<g>
	<path fill="#BDC3C7" d="M143.765,75.008c0,0-0.57-0.25-1.639-0.719c-1.1-0.469-2.732-1.151-4.84-1.977
		c-4.215-1.649-10.316-3.893-17.785-6.149c-7.465-2.262-16.301-4.534-25.904-6.186C84,58.336,73.613,57.344,63.261,57.772
		c-5.168,0.236-10.324,0.801-15.305,1.83c-4.973,1.045-9.783,2.505-14.225,4.434c-4.435,1.942-8.506,4.322-12.067,7
		c-3.567,2.674-6.617,5.641-9.142,8.632c-2.522,2.996-4.56,5.984-6.178,8.747c-0.79,1.392-1.509,2.711-2.133,3.95
		c-0.584,1.26-1.171,2.397-1.612,3.463c-0.442,1.067-0.837,2.021-1.181,2.85c-0.306,0.844-0.566,1.562-0.777,2.144
		C0.223,101.989,0,102.612,0,102.612s0.186-0.635,0.534-1.825c0.177-0.595,0.396-1.329,0.652-2.192
		c0.295-0.852,0.634-1.83,1.014-2.926c0.381-1.098,0.902-2.273,1.416-3.579c0.555-1.286,1.201-2.66,1.918-4.116
		c1.474-2.894,3.362-6.056,5.767-9.28c2.407-3.219,5.371-6.47,8.913-9.468c3.536-3.002,7.643-5.743,12.17-8.052
		c4.533-2.296,9.484-4.126,14.631-5.528c5.152-1.386,10.506-2.295,15.883-2.86c10.771-1.085,21.613-0.688,31.648,0.423
		c10.043,1.121,19.303,2.929,27.154,4.81c7.855,1.876,14.309,3.822,18.811,5.284c2.252,0.73,4.016,1.348,5.225,1.782
		c1.232,0.456,1.889,0.699,1.889,0.699L143.765,75.008z"/>
</g>
</svg>
