<?xml version="1.0" encoding="utf-8"?>
<!-- Generator: Adobe Illustrator 16.0.0, SVG Export Plug-In . SVG Version: 6.00 Build 0)  -->
<!DOCTYPE svg PUBLIC "-//W3C//DTD SVG 1.1//EN" "http://www.w3.org/Graphics/SVG/1.1/DTD/svg11.dtd">
<svg version="1.1" id="Layer_1" xmlns="http://www.w3.org/2000/svg" xmlns:xlink="http://www.w3.org/1999/xlink" x="0px" y="0px"
	 width="89.148px" height="102.794px" viewBox="0 0 89.148 102.794" enable-background="new 0 0 89.148 102.794"
	 xml:space="preserve">
<g>
	<path fill="#29B99A" d="M27.556,38.099c0,0,0.307,0.197,0.883,0.566c0.558,0.371,1.377,0.914,2.419,1.607
		c2.062,1.4,4.973,3.43,8.376,5.977c6.813,5.078,15.589,12.263,23.618,20.231c2.005,1.992,3.968,4.026,5.847,6.076
		c1.873,2.057,3.678,4.113,5.352,6.165c1.683,2.043,3.25,4.065,4.669,6.03c1.435,1.954,2.704,3.862,3.847,5.639
		c0.556,0.898,1.087,1.76,1.593,2.578c0.474,0.838,0.923,1.632,1.345,2.379c0.855,1.484,1.477,2.848,2.05,3.933
		c1.03,2.232,1.595,3.514,1.595,3.514s-0.65-1.245-1.823-3.394c-0.645-1.043-1.349-2.353-2.297-3.77
		c-0.467-0.712-0.965-1.469-1.489-2.267c-0.555-0.776-1.138-1.593-1.746-2.445c-1.248-1.681-2.627-3.479-4.171-5.312
		c-1.529-1.844-3.207-3.733-4.997-5.633c-1.782-1.908-3.694-3.813-5.669-5.71c-1.982-1.892-4.045-3.761-6.145-5.585
		c-8.407-7.296-17.482-13.762-24.472-18.278c-3.491-2.266-6.459-4.051-8.542-5.271c-1.044-0.598-1.864-1.066-2.423-1.386
		c-0.553-0.304-0.847-0.466-0.847-0.466L27.556,38.099z"/>
</g>
</svg>
