<?xml version="1.0" encoding="utf-8"?>
<!-- Generator: Adobe Illustrator 16.0.0, SVG Export Plug-In . SVG Version: 6.00 Build 0)  -->
<!DOCTYPE svg PUBLIC "-//W3C//DTD SVG 1.1//EN" "http://www.w3.org/Graphics/SVG/1.1/DTD/svg11.dtd">
<svg version="1.1" id="Layer_1" xmlns="http://www.w3.org/2000/svg" xmlns:xlink="http://www.w3.org/1999/xlink" x="0px" y="0px"
	 width="89.148px" height="102.794px" viewBox="0 0 89.148 102.794" enable-background="new 0 0 89.148 102.794"
	 xml:space="preserve">
<g>
	<path fill="#F0C419" d="M38.24,29.396c0,0,0.273,0.241,0.785,0.694c0.495,0.452,1.22,1.116,2.144,1.96
		c1.822,1.701,4.386,4.154,7.357,7.195c5.951,6.064,13.517,14.514,20.226,23.623c1.674,2.277,3.301,4.588,4.842,6.903
		c1.535,2.32,3.002,4.63,4.34,6.914c1.348,2.277,2.586,4.518,3.686,6.677c1.117,2.151,2.078,4.233,2.934,6.163
		c0.41,0.974,0.805,1.906,1.178,2.793c0.34,0.9,0.66,1.754,0.963,2.557c0.617,1.599,1.02,3.042,1.42,4.202
		c0.676,2.363,1.035,3.717,1.035,3.717s-0.451-1.33-1.279-3.634c-0.477-1.13-0.971-2.531-1.689-4.078
		c-0.352-0.774-0.727-1.599-1.123-2.468c-0.428-0.853-0.879-1.75-1.35-2.686c-0.975-1.853-2.061-3.842-3.305-5.89
		c-1.227-2.057-2.594-4.182-4.07-6.335c-1.467-2.159-3.064-4.335-4.723-6.514c-1.668-2.174-3.418-4.338-5.213-6.463
		c-7.186-8.503-15.158-16.287-21.37-21.825c-3.101-2.776-5.759-4.997-7.63-6.523c-0.939-0.75-1.678-1.339-2.181-1.741
		c-0.5-0.386-0.766-0.592-0.766-0.592L38.24,29.396z"/>
</g>
</svg>
