<?xml version="1.0" encoding="utf-8"?>
<!-- Generator: Adobe Illustrator 16.0.0, SVG Export Plug-In . SVG Version: 6.00 Build 0)  -->
<!DOCTYPE svg PUBLIC "-//W3C//DTD SVG 1.1//EN" "http://www.w3.org/Graphics/SVG/1.1/DTD/svg11.dtd">
<svg version="1.1" id="Layer_1" xmlns="http://www.w3.org/2000/svg" xmlns:xlink="http://www.w3.org/1999/xlink" x="0px" y="0px"
	 width="177.572px" height="102.794px" viewBox="0 0 177.572 102.794" enable-background="new 0 0 177.572 102.794"
	 xml:space="preserve">
<g>
	<path fill="#2A81BA" d="M89.048,16.651c0,0-0.127,0.015-0.375,0.044c-0.232,0.03-0.577,0.076-1.027,0.134
		c-0.938,0.126-2.346,0.355-4.136,0.678c-1.79,0.348-3.974,0.772-6.458,1.383c-2.49,0.584-5.28,1.349-8.303,2.263
		c-3.011,0.943-6.265,2.021-9.63,3.358c-1.7,0.629-3.388,1.406-5.149,2.129c-1.71,0.822-3.512,1.573-5.254,2.499
		c-0.88,0.45-1.767,0.904-2.66,1.361c-0.884,0.475-1.754,0.986-2.642,1.482c-1.795,0.966-3.503,2.107-5.272,3.197
		c-0.885,0.544-1.713,1.173-2.579,1.758c-0.846,0.61-1.745,1.164-2.559,1.825c-1.647,1.297-3.364,2.537-4.92,3.959l-2.385,2.082
		l-2.257,2.208c-1.554,1.429-2.871,3.059-4.291,4.587c-1.371,1.567-2.587,3.239-3.871,4.835c-1.128,1.7-2.322,3.342-3.366,5.036
		c-0.498,0.863-0.992,1.719-1.481,2.566c-0.477,0.855-1.014,1.672-1.4,2.553c-0.81,1.74-1.703,3.408-2.398,5.106
		c-0.667,1.714-1.316,3.381-1.944,4.994c-0.505,1.659-0.994,3.263-1.463,4.802c-0.114,0.387-0.241,0.766-0.342,1.146
		C2.8,83.023,2.715,83.403,2.632,83.78c-0.168,0.754-0.333,1.49-0.492,2.208c-0.301,1.439-0.681,2.794-0.822,4.102
		c-0.189,1.303-0.367,2.521-0.53,3.648c-0.172,1.127-0.325,2.165-0.363,3.111C0.154,100.633,0,102.794,0,102.794
		s-0.001-2.171-0.004-5.97c-0.03-0.954,0.047-2.003,0.139-3.146c0.083-1.146,0.173-2.386,0.269-3.71c0.048-1.332,0.33-2.72,0.53-4.2
		c0.11-0.738,0.223-1.497,0.338-2.272c0.058-0.389,0.116-0.782,0.175-1.18c0.075-0.394,0.175-0.787,0.263-1.188
		c0.365-1.603,0.745-3.273,1.139-5.002c0.523-1.698,1.065-3.453,1.621-5.258c0.589-1.798,1.38-3.577,2.091-5.439
		c0.336-0.941,0.826-1.822,1.256-2.744c0.445-0.916,0.894-1.842,1.347-2.774c0.957-1.839,2.071-3.635,3.128-5.499
		c1.212-1.758,2.366-3.604,3.683-5.349c1.363-1.706,2.639-3.524,4.154-5.141l2.21-2.496l2.349-2.372
		c1.54-1.62,3.242-3.054,4.888-4.549c0.813-0.761,1.709-1.411,2.558-2.12c0.867-0.684,1.701-1.412,2.591-2.053
		c1.777-1.283,3.506-2.622,5.319-3.776c0.898-0.591,1.782-1.198,2.679-1.766c0.908-0.551,1.809-1.098,2.703-1.64
		c1.776-1.111,3.607-2.04,5.359-3.039c1.797-0.898,3.53-1.847,5.272-2.642c3.455-1.669,6.806-3.056,9.923-4.285
		c3.127-1.198,6.027-2.221,8.632-3.035c2.596-0.84,4.9-1.465,6.804-1.979c1.915-0.49,3.429-0.851,4.493-1.073
		c0.552-0.113,0.974-0.199,1.259-0.257c0.271-0.052,0.412-0.079,0.412-0.079L89.048,16.651z"/>
</g>
</svg>
