<?xml version="1.0" encoding="utf-8"?>
<!-- Generator: Adobe Illustrator 16.0.0, SVG Export Plug-In . SVG Version: 6.00 Build 0)  -->
<!DOCTYPE svg PUBLIC "-//W3C//DTD SVG 1.1//EN" "http://www.w3.org/Graphics/SVG/1.1/DTD/svg11.dtd">
<svg version="1.1" id="Layer_1" xmlns="http://www.w3.org/2000/svg" xmlns:xlink="http://www.w3.org/1999/xlink" x="0px" y="0px"
	 width="89.148px" height="102.794px" viewBox="0 0 89.148 102.794" enable-background="new 0 0 89.148 102.794"
	 xml:space="preserve">
<g>
	<path fill="#E64D3C" d="M18.928,47.584c0,0,0.332,0.151,0.955,0.434c0.605,0.287,1.494,0.708,2.625,1.244
		c2.241,1.091,5.413,2.683,9.146,4.716c7.47,4.051,17.183,9.905,26.271,16.642c2.27,1.686,4.503,3.417,6.656,5.177
		c2.148,1.768,4.229,3.545,6.179,5.335c1.958,1.781,3.799,3.559,5.484,5.3c1.699,1.729,3.229,3.436,4.615,5.03
		c0.678,0.81,1.327,1.585,1.945,2.323c0.588,0.761,1.146,1.483,1.671,2.161c1.059,1.348,1.868,2.608,2.592,3.6
		c1.339,2.062,2.081,3.249,2.081,3.249s-0.822-1.139-2.29-3.098c-0.787-0.94-1.672-2.135-2.813-3.402
		c-0.564-0.637-1.165-1.314-1.799-2.029c-0.66-0.689-1.354-1.414-2.079-2.17c-1.476-1.484-3.098-3.068-4.888-4.66
		c-1.777-1.605-3.708-3.235-5.752-4.859c-2.037-1.633-4.201-3.244-6.428-4.84c-2.232-1.588-4.541-3.142-6.881-4.646
		c-9.365-6.018-19.273-11.117-26.837-14.586c-3.78-1.743-6.973-3.085-9.209-3.995c-1.118-0.44-1.997-0.788-2.596-1.024
		c-0.59-0.222-0.905-0.34-0.905-0.34L18.928,47.584z"/>
</g>
</svg>
