<?xml version="1.0" encoding="utf-8"?>
<!-- Generator: Adobe Illustrator 16.0.0, SVG Export Plug-In . SVG Version: 6.00 Build 0)  -->
<!DOCTYPE svg PUBLIC "-//W3C//DTD SVG 1.1//EN" "http://www.w3.org/Graphics/SVG/1.1/DTD/svg11.dtd">
<svg version="1.1" id="Layer_1" xmlns="http://www.w3.org/2000/svg" xmlns:xlink="http://www.w3.org/1999/xlink" x="0px" y="0px"
	 width="177.572px" height="107.441px" viewBox="0 0 177.572 107.441" enable-background="new 0 0 177.572 107.441"
	 xml:space="preserve">
<g>
	<path fill="#965BA5" d="M171.468,106.859c0,0-0.602-0.441-1.727-1.27c-1.156-0.834-2.873-2.053-5.1-3.563
		c-4.453-3.016-10.93-7.223-18.973-11.814c-8.039-4.596-17.646-9.592-28.311-14.08c-5.328-2.252-10.928-4.338-16.703-6.188
		c-5.771-1.857-11.738-3.393-17.775-4.547c-6.035-1.168-12.154-1.824-18.187-1.971c-6.034-0.145-11.976,0.379-17.61,1.488
		c-5.636,1.117-10.92,2.969-15.665,5.283c-4.747,2.318-8.93,5.143-12.478,8.131c-3.547,2.992-6.501,6.098-8.913,9.025
		c-1.182,1.48-2.271,2.887-3.229,4.223c-0.914,1.367-1.813,2.586-2.522,3.756c-0.712,1.166-1.349,2.209-1.901,3.115
		c-0.512,0.932-0.946,1.725-1.299,2.367C0.375,102.105,0,102.793,0,102.793s0.34-0.705,0.976-2.027
		c0.321-0.662,0.717-1.477,1.183-2.436c0.509-0.936,1.095-2.012,1.75-3.219c0.653-1.209,1.494-2.477,2.347-3.9
		c0.896-1.393,1.924-2.867,3.045-4.424c2.291-3.082,5.131-6.387,8.606-9.629c3.478-3.238,7.638-6.365,12.438-9.016
		c4.797-2.645,10.211-4.852,16.032-6.311c5.818-1.453,12.002-2.309,18.294-2.473c6.291-0.162,12.695,0.207,19.012,1.105
		c6.318,0.881,12.576,2.164,18.629,3.783c6.057,1.611,11.938,3.475,17.535,5.52c11.207,4.07,21.328,8.707,29.822,13.016
		c8.5,4.307,15.375,8.299,20.145,11.191c2.385,1.449,4.24,2.631,5.508,3.453c1.283,0.848,1.969,1.301,1.969,1.301L171.468,106.859z"
		/>
</g>
</svg>
