<?xml version="1.0" encoding="utf-8"?>
<!-- Generator: Adobe Illustrator 16.0.0, SVG Export Plug-In . SVG Version: 6.00 Build 0)  -->
<!DOCTYPE svg PUBLIC "-//W3C//DTD SVG 1.1//EN" "http://www.w3.org/Graphics/SVG/1.1/DTD/svg11.dtd">
<svg version="1.1" id="Layer_1" xmlns="http://www.w3.org/2000/svg" xmlns:xlink="http://www.w3.org/1999/xlink" x="0px" y="0px"
	 width="177.572px" height="102.794px" viewBox="0 0 177.572 102.794" enable-background="new 0 0 177.572 102.794"
	 xml:space="preserve">
<g>
	<path fill="#364A5E" d="M129.783,52.684c0,0-0.572-0.116-1.648-0.334c-1.102-0.213-2.738-0.517-4.838-0.859
		c-4.199-0.685-10.25-1.551-17.559-2.186c-7.305-0.642-15.871-1.046-25.033-0.795c-9.152,0.271-18.916,1.212-28.422,3.365
		c-4.754,1.061-9.419,2.47-13.886,4.186c-4.471,1.706-8.689,3.828-12.553,6.236c-3.869,2.403-7.324,5.178-10.274,8.146
		c-2.956,2.964-5.401,6.121-7.349,9.238c-1.938,3.122-3.45,6.17-4.512,8.983c-0.585,1.388-0.971,2.745-1.415,3.974
		c-0.35,1.256-0.694,2.407-0.965,3.457c-0.24,1.059-0.454,2.004-0.641,2.827c-0.178,0.824-0.276,1.536-0.383,2.109
		C0.107,102.181,0,102.794,0,102.794s0.067-0.618,0.194-1.777c0.07-0.579,0.124-1.299,0.25-2.136
		c0.136-0.837,0.291-1.799,0.465-2.876c0.205-1.072,0.479-2.251,0.753-3.542c0.368-1.265,0.675-2.665,1.178-4.107
		c0.898-2.922,2.241-6.125,4.031-9.46c1.799-3.329,4.121-6.758,7.005-10.037c2.876-3.283,6.31-6.414,10.199-9.186
		c3.884-2.775,8.17-5.277,12.729-7.355c4.555-2.088,9.339-3.865,14.218-5.28c9.758-2.865,19.818-4.475,29.268-5.351
		c9.459-0.856,18.326-0.994,25.912-0.807c7.592,0.181,13.908,0.682,18.338,1.121c2.215,0.22,3.959,0.431,5.158,0.585
		c1.225,0.17,1.879,0.26,1.879,0.26L129.783,52.684z"/>
</g>
</svg>
