<?xml version="1.0" encoding="utf-8"?>
<!-- Generator: Adobe Illustrator 16.0.0, SVG Export Plug-In . SVG Version: 6.00 Build 0)  -->
<!DOCTYPE svg PUBLIC "-//W3C//DTD SVG 1.1//EN" "http://www.w3.org/Graphics/SVG/1.1/DTD/svg11.dtd">
<svg version="1.1" id="Layer_1" xmlns="http://www.w3.org/2000/svg" xmlns:xlink="http://www.w3.org/1999/xlink" x="0px" y="0px"
	 width="89.148px" height="102.794px" viewBox="0 0 89.148 102.794" enable-background="new 0 0 89.148 102.794"
	 xml:space="preserve">
<g>
	<path fill="#4FBA6F" d="M10.964,59.594c0,0,0.352,0.095,1.012,0.274c0.644,0.186,1.588,0.459,2.791,0.806
		c2.387,0.717,5.774,1.777,9.785,3.185c8.024,2.796,18.553,7.012,28.604,12.2c2.512,1.298,4.994,2.647,7.402,4.039
		c2.404,1.398,4.744,2.818,6.957,4.271c2.218,1.443,4.32,2.901,6.265,4.35c1.955,1.433,3.74,2.871,5.363,4.222
		c0.799,0.69,1.565,1.353,2.294,1.981c0.703,0.656,1.37,1.279,1.997,1.864c1.262,1.159,2.264,2.273,3.136,3.136
		c1.654,1.819,2.577,2.872,2.577,2.872s-0.994-0.992-2.759-2.689c-0.928-0.801-1.993-1.838-3.322-2.905
		c-0.66-0.538-1.362-1.11-2.102-1.714c-0.763-0.574-1.564-1.178-2.4-1.808c-1.695-1.229-3.551-2.53-5.574-3.813
		c-2.013-1.299-4.18-2.597-6.459-3.871c-2.272-1.284-4.668-2.527-7.122-3.743c-2.459-1.209-4.987-2.371-7.538-3.48
		c-10.211-4.434-20.81-7.873-28.833-10.081c-4.011-1.111-7.378-1.923-9.732-2.461c-1.175-0.256-2.098-0.457-2.727-0.594
		c-0.619-0.124-0.948-0.19-0.948-0.19L10.964,59.594z"/>
</g>
</svg>
